<svg width="30" height="30" viewBox="0 0 30 30" fill="none" xmlns="http://www.w3.org/2000/svg">
<g clip-path="url(#clip0_113_2174)">
<mask id="mask0_113_2174" style="mask-type:luminance" maskUnits="userSpaceOnUse" x="0" y="-1" width="30" height="33">
<path d="M30 -0.882812H-2.6226e-05V31.7642H30V-0.882812Z" fill="white"/>
</mask>
<g mask="url(#mask0_113_2174)">
<path d="M-2.6226e-05 14.7878C-2.6226e-05 7.4006 -2.6226e-05 3.70701 2.10881 1.41209C4.21764 -0.882812 7.61175 -0.882812 14.4 -0.882812H15.6C22.3882 -0.882812 25.7823 -0.882812 27.8912 1.41209C30 3.70701 30 7.4006 30 14.7878V16.0937C30 23.4808 30 27.1744 27.8912 29.4694C25.7823 31.7642 22.3882 31.7642 15.6 31.7642H14.4C7.61175 31.7642 4.21764 31.7642 2.10881 29.4694C-2.6226e-05 27.1744 -2.6226e-05 23.4808 -2.6226e-05 16.0937V14.7878Z" fill="#0077FF"/>
<path d="M15.9625 22.6372C9.125 22.6372 5.22503 17.5361 5.06252 9.04785H8.48753C8.60003 15.278 11.125 17.9169 13.125 18.4611V9.04785H16.3501V14.421C18.3251 14.1897 20.3998 11.7412 21.0998 9.04785H24.3249C23.7874 12.367 21.5374 14.8155 19.9374 15.8221C21.5374 16.6383 24.1 18.7739 25.075 22.6372H21.5249C20.7624 20.0526 18.8626 18.053 16.3501 17.7809V22.6372H15.9625Z" fill="white"/>
</g>
</g>
<defs>
<clipPath id="clip0_113_2174">
<rect width="30" height="30" rx="15" fill="white"/>
</clipPath>
</defs>
</svg>
